<?xml version="1.0" encoding="UTF-8"?>
<svg width="600" height="280" version="1.1" xmlns="http://www.w3.org/2000/svg">
 <path d="m10 116.56c0-58.593 47.524-106.02 106.03-106.02 58.55 0 106.01 47.426 106.01 106.02s-47.459 106.03-106.01 106.03c-58.506 0-106.03-47.437-106.03-106.03m574.73 81.826c-0.22705-0.10986-0.59323-0.16845-1.1865-0.16845h-1.1572v2.3875h1.1572c1.1132 0 1.6405-0.4028 1.6405-1.289 0-0.41012-0.18303-0.79095-0.4541-0.93009m0.62254 6.0566-2.2044-2.9661h-0.76167v2.9661h-1.2523v-7.1845h2.5926c1.8748 0 2.6951 0.60786 2.6951 2.0286 0 1.1865-0.71766 1.9773-1.9334 2.1019l2.4021 3.054zm-1.5966-8.8763c-2.9222 0-5.2804 2.3655-5.2804 5.273 0 2.9222 2.3582 5.2804 5.2804 5.2804 2.9074 0 5.273-2.3582 5.273-5.2804 0-2.9074-2.3655-5.273-5.273-5.273m0 11.527c-3.4568 0-6.2544-2.7976-6.2544-6.2544 0-3.4421 2.7976-6.2471 6.2544-6.2471 3.4421 0 6.2397 2.8049 6.2397 6.2471 0 3.4568-2.7976 6.2544-6.2397 6.2544m-31.466 49.075c-7.7484 0-14.098-8.5979-14.098-19.232 0-10.363 6.4887-19.071 14.098-19.071 7.6971 0 14.128 8.7078 14.128 19.071 0 10.634-6.3569 19.232-14.128 19.232m0-51.61c-17.899 0-31.418 13.937-31.418 32.378 0 18.536 13.52 32.531 31.418 32.531 17.957 0 31.441-13.996 31.441-32.531 0-18.441-13.483-32.378-31.441-32.378m-44.469 0.79096c-4.6724 0-8.4735 3.5227-14.215 13.116-0.10982-2.3582-0.57852-12.172-0.57852-12.172h-14.567v61.804h16.698v-28.533c0-4.4235 1.2231-7.8216 4.1378-11.322 2.3069-2.8122 4.9654-4.4162 7.3309-4.4162 1.5892 0 2.8269 0.50534 4.4381 1.765l0.54932 0.37349 5.3023-15.98-0.16113-0.16112c-2.6072-3.0174-5.5513-4.4747-8.9348-4.4747m-44.205 44.088-0.4687 0.29297c-4.0426 2.6658-6.3569 3.7204-8.1878 3.7204-1.9334 0-2.7097-1.1424-2.7097-8.305v-26.541h13.343v-12.311h-13.343v-18.646c0-1.3109-0.48341-2.49-0.48341-2.49l-15.424 2.49v18.675c-0.71035 0.10986-9.1545 1.582-9.1545 1.582v10.7h9.1545v37.226c0 9.3157 3.9621 13.636 12.509 13.636 4.3503 0 9.257-1.4134 13.988-4.1085l2.0066-1.1938 4.1891-2.5487-0.19045-0.32957zm-155.6-5.0386-21.172-61.767h-22.403v85.532h16.273v-53.77c0.8935 2.468 19.129 53.77 19.129 53.77h16.295c6.3642-18.404 18.376-51.434 19.071-53.353 0 6.1299-0.0948 53.353-0.0948 53.353h16.361v-85.532h-22.432zm84.822-27.207c7.0527 0 10.011 3.4129 10.465 12.032h-23.018c1.3622-7.6385 5.9101-12.032 12.553-12.032m20.799 32.019c-5.7564 3.5446-8.056 4.6578-11.674 5.6832-2.263 0.71777-4.5114 1.0033-7.1698 1.0033-5.6466 0-10.773-2.6951-13.366-7.0527-1.3036-2.241-1.7796-4.1598-2.0286-9.0007h40.741v-7.0454c0-16.662-10.788-28.24-26.248-28.24-17.877 0-31.337 14.64-31.337 34.07 0 18.726 11.908 30.839 30.283 30.839 7.1332 0 13.813-1.4134 20.426-4.3576 1.4501-0.63713 3.6618-1.6625 6.6645-3.2809l0.39549-0.18303-6.2837-12.721z"/>
 <path d="m85.675 53.45h-32.761v127.22h26.682v-71.809c1.3183 3.6498 25.08 71.809 25.08 71.809h23.86zm61.743 0-26.29 78.684 11.963 35.616c4.8047-14.164 19.339-56.077 20.374-58.887v71.809h26.758v-127.22z" fill="#FFFFFF"/>
</svg>